<svg height="830" width="720" xmlns="http://www.w3.org/2000/svg">
<rect height="830" fill="#555" width="720"></rect>
<text fill="#7f7" font-family="Courier New" font-size="12" xml:space="preserve">
<tspan x="10" y="26">27 megabytes installed</tspan>
<tspan x="10" y="42"></tspan>
<tspan x="10" y="58">node_modules</tspan>
<tspan x="10" y="74">└─┬ express.io@1.1.13 </tspan>
<tspan x="10" y="90">  ├── async@0.1.22 </tspan>
<tspan x="10" y="106">  ├── coffee-script@1.4.0 </tspan>
<tspan x="10" y="122">  ├─┬ express@3.4.8 </tspan>
<tspan x="10" y="138">  │ ├── buffer-crc32@0.2.1 </tspan>
<tspan x="10" y="154">  │ ├─┬ commander@1.3.2 </tspan>
<tspan x="10" y="170">  │ │ └── keypress@0.1.0 </tspan>
<tspan x="10" y="186">  │ ├─┬ connect@2.12.0 </tspan>
<tspan x="10" y="202">  │ │ ├── batch@0.5.0 </tspan>
<tspan x="10" y="218">  │ │ ├── bytes@0.2.1 </tspan>
<tspan x="10" y="234">  │ │ ├─┬ multiparty@2.2.0 </tspan>
<tspan x="10" y="250">  │ │ │ ├─┬ readable-stream@1.1.14 </tspan>
<tspan x="10" y="266">  │ │ │ │ ├── core-util-is@1.0.2 </tspan>
<tspan x="10" y="282">  │ │ │ │ ├── inherits@2.0.3 </tspan>
<tspan x="10" y="298">  │ │ │ │ ├── isarray@0.0.1 </tspan>
<tspan x="10" y="314">  │ │ │ │ └── string_decoder@0.10.31 </tspan>
<tspan x="10" y="330">  │ │ │ └── stream-counter@0.2.0 </tspan>
<tspan x="10" y="346">  │ │ ├── negotiator@0.3.0 </tspan>
<tspan x="10" y="362">  │ │ ├── pause@0.0.1 </tspan>
<tspan x="10" y="378">  │ │ ├── qs@0.6.6 </tspan>
<tspan x="10" y="394">  │ │ ├── raw-body@1.1.2 </tspan>
<tspan x="10" y="410">  │ │ └── uid2@0.0.3 </tspan>
<tspan x="10" y="426">  │ ├── cookie@0.1.0 </tspan>
<tspan x="10" y="442">  │ ├── cookie-signature@1.0.1 </tspan>
<tspan x="10" y="458">  │ ├── debug@0.8.1 </tspan>
<tspan x="10" y="474">  │ ├── fresh@0.2.0 </tspan>
<tspan x="10" y="490">  │ ├── merge-descriptors@0.0.1 </tspan>
<tspan x="10" y="506">  │ ├── methods@0.1.0 </tspan>
<tspan x="10" y="522">  │ ├── mkdirp@0.3.5 </tspan>
<tspan x="10" y="538">  │ ├── range-parser@0.0.4 </tspan>
<tspan x="10" y="554">  │ └─┬ send@0.1.4 </tspan>
<tspan x="10" y="570">  │   └── mime@1.2.11 </tspan>
<tspan x="10" y="586">  ├─┬ socket.io@0.9.17 </tspan>
<tspan x="10" y="602">  │ ├── base64id@0.1.0 </tspan>
<tspan x="10" y="618">  │ ├── policyfile@0.0.4 </tspan>
<tspan x="10" y="634">  │ ├── redis@0.7.3 </tspan>
<tspan x="10" y="650">  │ └─┬ socket.io-client@0.9.16 </tspan>
<tspan x="10" y="666">  │   ├─┬ active-x-obfuscator@0.0.1 </tspan>
<tspan x="10" y="682">  │   │ └── zeparser@0.0.5 </tspan>
<tspan x="10" y="698">  │   ├── uglify-js@1.2.5 </tspan>
<tspan x="10" y="714">  │   ├─┬ ws@0.4.32 </tspan>
<tspan x="10" y="730">  │   │ ├── commander@2.1.0 </tspan>
<tspan x="10" y="746">  │   │ ├── nan@1.0.0 </tspan>
<tspan x="10" y="762">  │   │ ├── options@0.0.6 </tspan>
<tspan x="10" y="778">  │   │ └── tinycolor@0.0.1 </tspan>
<tspan x="10" y="794">  │   └── xmlhttprequest@1.4.2 </tspan>
<tspan x="10" y="810">  └── underscore@1.4.3</tspan>
</text>
</svg>
